ply
format ascii 1.0
comment VCGLIB generated
element vertex 24
property float x
property float y
property float z
element face 12
property list uchar int vertex_indices
end_header
-2.818228 2.769025 -4.689565 
-2.362186 2.769025 -6.182385 
-2.362186 -0.01213 -6.182385 
-2.818228 -0.01213 -4.689565 
-2.362186 2.769025 -6.182385 
-2.312025 2.769025 -6.167061 
-2.312025 -0.01213 -6.167061 
-2.362186 -0.01213 -6.182385 
-2.312025 2.769025 -6.167061 
-2.768066 2.769025 -4.674241 
-2.768066 -0.01213 -4.674241 
-2.312025 -0.01213 -6.167061 
-2.768066 2.769025 -4.674241 
-2.818228 2.769025 -4.689565 
-2.818228 -0.01213 -4.689565 
-2.768066 -0.01213 -4.674241 
-2.818228 -0.01213 -4.689565 
-2.362186 -0.01213 -6.182385 
-2.312025 -0.01213 -6.167061 
-2.768066 -0.01213 -4.674241 
-2.768066 2.769025 -4.674241 
-2.312025 2.769025 -6.167061 
-2.362186 2.769025 -6.182385 
-2.818228 2.769025 -4.689565 
3 0 1 2 
3 0 2 3 
3 4 5 6 
3 4 6 7 
3 8 9 10 
3 8 10 11 
3 12 13 14 
3 12 14 15 
3 16 17 18 
3 16 18 19 
3 20 21 22 
3 20 22 23 
